# xmcd CD database file
#
# Track frame offsets:
#	150
#	15790
#	43847
#	65402
#	81892
#	101170
#	116765
#	141212
#	169737
#	187487
#
# Disc length: 2680 seconds
#
# Revision: 1
# Processed by: cddbd v1.5PL3 Copyright (c) Steve Scherf et al.
# Submitted via: CDex 1.40Release
#
DISCID=8b0a760a
DTITLE=Paolo Bonfanti - Tryin' To Keep The Whole Thing Rockin'
DYEAR=1996
DGENRE=Blues
TTITLE0=On My Best Behavior
TTITLE1=Blues Don't Pay
TTITLE2=Dead End
TTITLE3=Look-Ka Py Py
TTITLE4=Two Steps Away From The Blues
TTITLE5=Changes I'm Goin Thru
TTITLE6=Route One
TTITLE7=Stream Of Your Love
TTITLE8=I'm Just Tryin'
TTITLE9=You Were Right
EXTD=YEAR: 1996 ID3G: 0
EXTT0=
EXTT1=
EXTT2=
EXTT3=
EXTT4=
EXTT5=
EXTT6=
EXTT7=
EXTT8=
EXTT9=
PLAYORDER=
